# xmcd
#
# Track frame offsets: 
#        150
#        13159
#        26955
#        41169
#        54381
#        68591
#        84428
#        102088
#        114591
#        134646
#        177731
#
# Disc length: 3322 seconds
#
# Revision: 1
# Processed by: cddbd v1.5.2PL0 Copyright (c) Steve Scherf et al.
# Submitted via: ExactAudioCopy v0.99pb5
#
DISCID=9a0cf80b
DTITLE=Max De Angelis - La soluzione
DYEAR=2005
DGENRE=
TTITLE0=La soluzione
TTITLE1=Sono qui per questo
TTITLE2=Silvia stella
TTITLE3=L'evaso
TTITLE4=Nuda
TTITLE5=L'apnea
TTITLE6=Sentirsi nuovo
TTITLE7=L'equivalenza
TTITLE8=I sentimenti
TTITLE9=Grandine
TTITLE10=Dati Traccia
EXTD=
EXTT0=
EXTT1=
EXTT2=
EXTT3=
EXTT4=
EXTT5=
EXTT6=
EXTT7=
EXTT8=
EXTT9=
EXTT10=
PLAYORDER=
